<svg xmlns="http://www.w3.org/2000/svg" width="134" height="134" viewBox="0 0 134 134">
  <g id="Group_12" data-name="Group 12" transform="translate(-2203 -2574)">
    <path id="Subtraction_2" data-name="Subtraction 2" d="M67,170a66.791,66.791,0,1,1,26.08-5.265A66.579,66.579,0,0,1,67,170ZM97.007,58.683c-3,.176-6.774.354-11.206.527-3.889.132-8.823.254-14.667.363-5.883.109-13.08.165-21.39.165L37.482,66.263c1.5.087,3.137.154,4.878.2,1.761.044,3.646.067,5.6.067,0,4.017.011,7.82.032,11.3.022,3.387.033,6.636.033,9.657s.011,5.837.033,8.4c.021,2.6.032,5.119.032,7.482l-7.251,3.757c1.116.086,2.3.153,3.527.2s2.473.066,3.724.066v27.026c.044,2.8.011,5.246-.1,7.284a30.417,30.417,0,0,1-.758,5.5,16.437,16.437,0,0,1-1.747,4.416,20.245,20.245,0,0,1-3.2,4.021,30.533,30.533,0,0,1,4.713-.692c2.165-.2,4.815-.363,7.877-.494,3.042-.131,6.524-.22,10.349-.264,3.779-.044,7.882-.066,12.195-.066a28.109,28.109,0,0,0,6-.989,30.971,30.971,0,0,0,5.933-2.373,28.893,28.893,0,0,0,6.526-4.746,18.252,18.252,0,0,1-4.021,1.384,37.081,37.081,0,0,1-3.956.659,35.615,35.615,0,0,1-4.284.264H53.764a10.548,10.548,0,0,0,3.2-2.241,9.768,9.768,0,0,0,1.681-2.373,7.011,7.011,0,0,0,.791-2.57c.087-1.365.176-3.517.264-6.395.044-2.451.11-5.922.2-10.316s.132-10.173.132-17.172c3.692-.13,7.074-.285,10.052-.461,2.953-.176,5.248-.331,6.823-.462.2-.009.4-.013.593-.013a8.979,8.979,0,0,1,2.044.211,3.056,3.056,0,0,1,1.483.724c.372.35.383.861.032,1.517,2.116-1.5,3.836-2.685,5.108-3.526s2.292-1.5,3-1.945a17.6,17.6,0,0,1,1.78-.989,5.121,5.121,0,0,0,1.087-.692,2.04,2.04,0,0,0,.758-.956c.088-.306-.112-.572-.593-.791a6.076,6.076,0,0,0-2.215-.275c-.214,0-.445,0-.685.011-2.319.132-5,.287-7.976.462-2.565.132-5.659.254-9.2.363s-7.621.186-12.1.23c0-4.631-.011-9.8-.033-15.358-.021-5.507-.054-11.7-.1-18.919,2.694-.044,5.377-.11,7.977-.2,2.52-.086,4.949-.174,7.218-.264l.99-.039.053,0,4.79-.19c1.666-.066,2.931-.143,3.758-.23a6.859,6.859,0,0,1,2.372.329,1.581,1.581,0,0,1,.923,1.021c.131.459-.246,1.18-1.121,2.143,2.527-1.685,4.623-3.093,6.229-4.186,1.5-1.023,2.687-1.788,3.526-2.274.98-.579,1.627-.945,1.978-1.121a5.555,5.555,0,0,0,1.186-.66,1.914,1.914,0,0,0,.791-.889c.088-.285-.112-.551-.593-.791A7.83,7.83,0,0,0,97.007,58.683Z" transform="translate(2203 2538)" fill="#00d8d6"/>
  </g>
</svg>
