<svg xmlns="http://www.w3.org/2000/svg" width="869.747" height="671.094" viewBox="0 0 869.747 671.094">
  <g id="In_no_time-bro" data-name="In no time-bro" transform="translate(-19.452 -66.16)">
    <g id="freepik--background-simple--inject-21" transform="translate(19.452 85.995)">
      <path id="Path_169" data-name="Path 169" d="M228.5,727.613H800.912c5.976-6.77,13.029-17.984,14.769-20.309a358.9,358.9,0,0,0,43.077-76.133c45.914-110.019,37.82-237.928-10.382-346.056-35.74-80.028-98.22-149.107-186.1-183.542C581.213,69.784,469.4,61.54,400.545,120.483S343,283.507,273.847,342.432c-1.891,1.645-3.914,3.234-5.938,4.765-37.669,28.252-89.483,27.647-134.262,39.258-46.462,12.065-89.1,42.226-105.235,85.1C7.1,528.281,26.369,593.219,59.311,642.763,99.495,703.181,160.783,720.427,228.5,727.613Z" transform="translate(-19.452 -76.885)" fill="#92e3a9"/>
      <path id="Path_170" data-name="Path 170" d="M228.5,727.613H800.912c5.976-6.77,13.029-17.984,14.769-20.309a358.9,358.9,0,0,0,43.077-76.133c45.914-110.019,37.82-237.928-10.382-346.056-35.74-80.028-98.22-149.107-186.1-183.542C581.213,69.784,469.4,61.54,400.545,120.483S343,283.507,273.847,342.432c-1.891,1.645-3.914,3.234-5.938,4.765-37.669,28.252-89.483,27.647-134.262,39.258-46.462,12.065-89.1,42.226-105.235,85.1C7.1,528.281,26.369,593.219,59.311,642.763,99.495,703.181,160.783,720.427,228.5,727.613Z" transform="translate(-19.452 -76.885)" fill="#fff" opacity="0.7"/>
    </g>
    <g id="freepik--Window--inject-21" transform="translate(391.979 66.66)">
      <path id="Path_171" data-name="Path 171" d="M441.222,79H222.053l-2.893,30.124H441.222Z" transform="translate(-214.035 -55.665)" fill="none" stroke="#a3a3a3" stroke-miterlimit="10" stroke-width="1"/>
      <path id="Path_172" data-name="Path 172" d="M441.222,94.93H222.053l-2.893,30.143H441.222Z" transform="translate(-214.035 -41.471)" fill="none" stroke="#a3a3a3" stroke-miterlimit="10" stroke-width="1"/>
      <path id="Path_173" data-name="Path 173" d="M441.222,110.87H222.053l-2.893,30.124H441.222Z" transform="translate(-214.035 -27.268)" fill="none" stroke="#a3a3a3" stroke-miterlimit="10" stroke-width="1"/>
      <path id="Path_174" data-name="Path 174" d="M441.222,126.8H222.053l-2.893,30.124H441.222Z" transform="translate(-214.035 -13.074)" fill="none" stroke="#a3a3a3" stroke-miterlimit="10" stroke-width="1"/>
      <path id="Path_175" data-name="Path 175" d="M441.222,142.73H222.053l-2.893,30.143H441.222Z" transform="translate(-214.035 1.12)" fill="none" stroke="#a3a3a3" stroke-miterlimit="10" stroke-width="1"/>
      <path id="Path_176" data-name="Path 176" d="M441.222,158.67H222.053l-2.893,30.124H441.222Z" transform="translate(-214.035 15.323)" fill="none" stroke="#a3a3a3" stroke-miterlimit="10" stroke-width="1"/>
      <path id="Path_177" data-name="Path 177" d="M441.222,174.6H222.053l-2.893,30.124H441.222Z" transform="translate(-214.035 29.517)" fill="none" stroke="#a3a3a3" stroke-miterlimit="10" stroke-width="1"/>
      <path id="Path_178" data-name="Path 178" d="M441.222,190.53H222.053l-2.893,30.143H441.222Z" transform="translate(-214.035 43.711)" fill="none" stroke="#a3a3a3" stroke-miterlimit="10" stroke-width="1"/>
      <path id="Path_179" data-name="Path 179" d="M441.222,206.47H222.053l-2.893,30.124H441.222Z" transform="translate(-214.035 57.913)" fill="none" stroke="#a3a3a3" stroke-miterlimit="10" stroke-width="1"/>
      <path id="Path_180" data-name="Path 180" d="M441.222,222.4H222.053l-2.893,30.124H441.222Z" transform="translate(-214.035 72.107)" fill="none" stroke="#a3a3a3" stroke-miterlimit="10" stroke-width="1"/>
      <path id="Path_181" data-name="Path 181" d="M441.222,238.33H222.053l-2.893,30.143H441.222Z" transform="translate(-214.035 86.301)" fill="none" stroke="#a3a3a3" stroke-miterlimit="10" stroke-width="1"/>
      <path id="Path_182" data-name="Path 182" d="M441.222,254.27H222.053l-2.893,30.124H441.222Z" transform="translate(-214.035 100.504)" fill="none" stroke="#a3a3a3" stroke-miterlimit="10" stroke-width="1"/>
      <path id="Path_183" data-name="Path 183" d="M441.222,270.2H222.053l-2.893,30.124H441.222Z" transform="translate(-214.035 114.698)" fill="none" stroke="#a3a3a3" stroke-miterlimit="10" stroke-width="1"/>
      <path id="Path_184" data-name="Path 184" d="M441.222,286.13H222.053l-2.893,30.143H441.222Z" transform="translate(-214.035 128.892)" fill="none" stroke="#a3a3a3" stroke-miterlimit="10" stroke-width="1"/>
      <path id="Path_185" data-name="Path 185" d="M441.222,302.07H222.053l-2.893,30.124H441.222Z" transform="translate(-214.035 143.095)" fill="none" stroke="#a3a3a3" stroke-miterlimit="10" stroke-width="1"/>
      <path id="Path_186" data-name="Path 186" d="M560.344,79H341.193L338.3,109.124H560.344Z" transform="translate(-107.879 -55.665)" fill="none" stroke="#a3a3a3" stroke-miterlimit="10" stroke-width="1"/>
      <path id="Path_187" data-name="Path 187" d="M560.344,94.93H341.193L338.3,125.073H560.344Z" transform="translate(-107.879 -41.471)" fill="none" stroke="#a3a3a3" stroke-miterlimit="10" stroke-width="1"/>
      <path id="Path_188" data-name="Path 188" d="M560.344,110.87H341.193L338.3,140.994H560.344Z" transform="translate(-107.879 -27.268)" fill="none" stroke="#a3a3a3" stroke-miterlimit="10" stroke-width="1"/>
      <path id="Path_189" data-name="Path 189" d="M560.344,126.8H341.193L338.3,156.924H560.344Z" transform="translate(-107.879 -13.074)" fill="none" stroke="#a3a3a3" stroke-miterlimit="10" stroke-width="1"/>
      <path id="Path_190" data-name="Path 190" d="M560.344,142.73H341.193L338.3,172.873H560.344Z" transform="translate(-107.879 1.12)" fill="none" stroke="#a3a3a3" stroke-miterlimit="10" stroke-width="1"/>
      <path id="Path_191" data-name="Path 191" d="M560.344,158.67H341.193L338.3,188.794H560.344Z" transform="translate(-107.879 15.323)" fill="none" stroke="#a3a3a3" stroke-miterlimit="10" stroke-width="1"/>
      <path id="Path_192" data-name="Path 192" d="M560.344,174.6H341.193L338.3,204.724H560.344Z" transform="translate(-107.879 29.517)" fill="none" stroke="#a3a3a3" stroke-miterlimit="10" stroke-width="1"/>
      <path id="Path_193" data-name="Path 193" d="M560.344,190.53H341.193L338.3,220.673H560.344Z" transform="translate(-107.879 43.711)" fill="none" stroke="#a3a3a3" stroke-miterlimit="10" stroke-width="1"/>
      <path id="Path_194" data-name="Path 194" d="M560.344,206.47H341.193L338.3,236.594H560.344Z" transform="translate(-107.879 57.913)" fill="none" stroke="#a3a3a3" stroke-miterlimit="10" stroke-width="1"/>
      <path id="Path_195" data-name="Path 195" d="M560.344,222.4H341.193L338.3,252.524H560.344Z" transform="translate(-107.879 72.107)" fill="none" stroke="#a3a3a3" stroke-miterlimit="10" stroke-width="1"/>
      <path id="Path_196" data-name="Path 196" d="M560.344,238.33H341.193L338.3,268.473H560.344Z" transform="translate(-107.879 86.301)" fill="none" stroke="#a3a3a3" stroke-miterlimit="10" stroke-width="1"/>
      <path id="Path_197" data-name="Path 197" d="M560.344,254.27H341.193L338.3,284.394H560.344Z" transform="translate(-107.879 100.504)" fill="none" stroke="#a3a3a3" stroke-miterlimit="10" stroke-width="1"/>
      <path id="Path_198" data-name="Path 198" d="M560.344,270.2H341.193L338.3,300.324H560.344Z" transform="translate(-107.879 114.698)" fill="none" stroke="#a3a3a3" stroke-miterlimit="10" stroke-width="1"/>
      <path id="Path_199" data-name="Path 199" d="M560.344,286.13H341.193L338.3,316.273H560.344Z" transform="translate(-107.879 128.892)" fill="none" stroke="#a3a3a3" stroke-miterlimit="10" stroke-width="1"/>
      <path id="Path_200" data-name="Path 200" d="M560.344,302.07H341.193L338.3,332.194H560.344Z" transform="translate(-107.879 143.095)" fill="none" stroke="#a3a3a3" stroke-miterlimit="10" stroke-width="1"/>
      <rect id="Rectangle_102" data-name="Rectangle 102" width="463.451" height="22.73" fill="none" stroke="#a3a3a3" stroke-miterlimit="10" stroke-width="1"/>
      <line id="Line_1" data-name="Line 1" y2="400.31" transform="translate(463.451 22.73)" fill="none" stroke="#a3a3a3" stroke-miterlimit="10" stroke-width="1"/>
      <line id="Line_2" data-name="Line 2" y2="274.652" transform="translate(458.402 23.373)" fill="none" stroke="#a3a3a3" stroke-miterlimit="10" stroke-width="1"/>
      <rect id="Rectangle_103" data-name="Rectangle 103" width="6.221" height="10.193" transform="translate(460.501 422.151)" fill="#263238" stroke="#a3a3a3" stroke-miterlimit="10" stroke-width="1"/>
      <rect id="Rectangle_104" data-name="Rectangle 104" width="6.24" height="10.193" transform="translate(454.885 295.831)" fill="#263238" stroke="#a3a3a3" stroke-miterlimit="10" stroke-width="1"/>
    </g>
    <g id="freepik--Picture--inject-21" transform="translate(73.436 108.905)">
      <rect id="Rectangle_105" data-name="Rectangle 105" width="238.268" height="296.89" fill="none" stroke="#a3a3a3" stroke-miterlimit="10" stroke-width="1"/>
      <rect id="Rectangle_106" data-name="Rectangle 106" width="226.128" height="281.762" transform="translate(6.07 7.564)" fill="none" stroke="#a3a3a3" stroke-miterlimit="10" stroke-width="1"/>
      <rect id="Rectangle_107" data-name="Rectangle 107" width="83.205" height="103.685" transform="translate(77.532 96.612)" fill="#d6d6d6"/>
    </g>
    <g id="freepik--Plant--inject-21" transform="translate(225.039 513.583)">
      <path id="Path_201" data-name="Path 201" d="M152.248,462.445s.851-30.426-.227-56.6,1.1-82.3,1.1-82.3" transform="translate(-107.185 -284.69)" fill="none" stroke="#263238" stroke-miterlimit="10" stroke-width="1"/>
      <line id="Line_3" data-name="Line 3" x1="11.895" y1="9.342" transform="translate(33.528 62.555)" fill="none" stroke="#263238" stroke-miterlimit="10" stroke-width="1"/>
      <line id="Line_4" data-name="Line 4" y1="6.845" x2="4.217" transform="translate(45.309 71.499)" fill="none" stroke="#263238" stroke-miterlimit="10" stroke-width="1"/>
      <line id="Line_5" data-name="Line 5" y1="8.718" x2="10.571" transform="translate(44.326 96.688)" fill="none" stroke="#263238" stroke-miterlimit="10" stroke-width="1"/>
      <line id="Line_6" data-name="Line 6" x1="5.579" y1="5.068" transform="translate(40.355 45.328)" fill="none" stroke="#263238" stroke-miterlimit="10" stroke-width="1"/>
      <line id="Line_7" data-name="Line 7" x1="6.978" y1="7.488" transform="translate(37.254 102.682)" fill="none" stroke="#263238" stroke-miterlimit="10" stroke-width="1"/>
      <line id="Line_8" data-name="Line 8" x1="14.523" y1="13.237" transform="translate(30.333 126.301)" fill="none" stroke="#263238" stroke-miterlimit="10" stroke-width="1"/>
      <path id="Path_202" data-name="Path 202" d="M152.08,387.781a84.726,84.726,0,0,0,10.779-5.011" transform="translate(-106.865 -231.923)" fill="none" stroke="#263238" stroke-miterlimit="10" stroke-width="1"/>
      <path id="Path_203" data-name="Path 203" d="M161.935,344.775c-5.843-4.52-25.4-3.782-29.178,5.673s8.15,24.583,19.686,23.543c4.5-.416,6.448-.737,8.207-3.253h0l-16.074-15.714L161.973,369a13.636,13.636,0,0,0,1.191-2.855c.208-.7.378-1.437.548-2.231C164.828,358.3,167.381,348.992,161.935,344.775Z" transform="translate(-124.719 -268.17)" fill="#92e3a9"/>
      <path id="Path_204" data-name="Path 204" d="M178.2,337.77a2.574,2.574,0,0,1,0,.321c-1.57,6.978-9.55,10.93-16.263,10.344a16.56,16.56,0,0,1-2.761-.511,19.232,19.232,0,0,0-1.721,16.925,10.175,10.175,0,0,0,1.135,2.212L181.713,347.4l-21.955,21.161c6.6,7.091,22.144,6.127,27.552-7.016S185.816,339.642,178.2,337.77Z" transform="translate(-103.159 -272.019)" fill="#92e3a9"/>
      <path id="Path_205" data-name="Path 205" d="M172.239,325.153c-11.346-2.515-21.577,2.666-21.387,14.542a19.213,19.213,0,0,0,6.335,13.937L168.8,337.52l-9.871,17.454a17.018,17.018,0,0,0,2.95,1.588,15.356,15.356,0,0,0,4.52,1.078c6.694.586,14.674-3.366,16.263-10.344C184.417,339.486,183.623,327.649,172.239,325.153Z" transform="translate(-107.962 -283.815)" fill="#92e3a9"/>
      <path id="Path_206" data-name="Path 206" d="M163.648,303a90.384,90.384,0,0,0-8.453,3.914c-7.28,3.555-13.029,15.128-7.28,24.943a17.19,17.19,0,0,0,9.739,8.529l2.912-28.365-1.172,28.8a7.569,7.569,0,0,0,1.664,0c4.728-.492,12.216-6.146,12.935-17.757S163.648,303,163.648,303Z" transform="translate(-112.665 -303)" fill="#92e3a9"/>
      <path id="Path_207" data-name="Path 207" d="M139.475,318.249l21.974,17.568a6.108,6.108,0,0,0,.208-2.477c-1-10.06-11.044-15.885-17.681-17.984S132.762,317,137.017,326.7s15.45,14.22,20.442,12.821a5.673,5.673,0,0,0,3.026-1.891Z" transform="translate(-121.756 -292.494)" fill="#92e3a9"/>
      <path id="Path_208" data-name="Path 208" d="M158.252,333.143c-4.746.151-12.424-3.234-16.906-9.758a8.982,8.982,0,0,0-9.682,7.867c-2.231,10.5,5.352,21.463,16.282,20.12a14.5,14.5,0,0,0,9.115-3.877l-19.553-17.832,20.915,15.941a6.486,6.486,0,0,0,.775-2.421,17.473,17.473,0,0,0-.946-10.041Z" transform="translate(-125.404 -284.866)" fill="#92e3a9"/>
      <path id="Path_209" data-name="Path 209" d="M160.9,364.144a16.775,16.775,0,0,1-5.673,1.343c-7.148.662-14.428-4.935-18.059-11.516-4.387.719-7.886,3.063-8.736,7.867-2.156,12.273,9.19,28.365,20.669,25.888a16.432,16.432,0,0,0,7.98-4.066l-25.056-24.092L158.5,382.033a14.013,14.013,0,0,0,2.837-6.694A15.393,15.393,0,0,0,160.9,364.144Z" transform="translate(-128.17 -257.585)" fill="#92e3a9"/>
      <path id="Path_210" data-name="Path 210" d="M185.037,374.832c-8.415-9.739-18.456-1.021-18.456-1.021s-6.146,2.042-8.453,10.741a13.237,13.237,0,0,0,.3,8.037l25.34-14.769-24.735,16.149c2.307,4.368,7.337,7.054,14.239,5.106C184.432,395.955,193.471,384.59,185.037,374.832Z" transform="translate(-101.907 -243.104)" fill="#92e3a9"/>
      <rect id="Rectangle_108" data-name="Rectangle 108" width="35.078" height="51.946" transform="translate(27.061 168.603)" fill="#263238"/>
    </g>
    <g id="freepik--Character--inject-21" transform="translate(397.879 313.909)">
      <path id="Path_211" data-name="Path 211" d="M329.407,341.129l-1.362-10.514c-1.475-10.022-5.295-36.27-5.295-38.8,0-3.12-14.485-12.121-14.485-12.121L290.83,304.5l-11.97,23.354s7.7,6.978,14.523,12.1a40.6,40.6,0,0,0,14.882,6.656l34.889,119.664,23.468-47.427Z" transform="translate(-166.741 -124.096)" fill="#fff" stroke="#263238" stroke-linecap="round" stroke-linejoin="round" stroke-width="1"/>
      <rect id="Rectangle_109" data-name="Rectangle 109" width="43.872" height="86.609" rx="4.96" transform="matrix(0.999, -0.049, 0.049, 0.999, 96.449, 120.645)" fill="#fff" stroke="#263238" stroke-linecap="round" stroke-linejoin="round" stroke-width="1"/>
      <rect id="Rectangle_110" data-name="Rectangle 110" width="43.872" height="86.609" rx="4.96" transform="matrix(0.999, -0.049, 0.049, 0.999, 99.196, 120.434)" fill="#263238" stroke="#263238" stroke-linecap="round" stroke-linejoin="round" stroke-width="1"/>
      <path id="Path_212" data-name="Path 212" d="M314.045,270.641a9.455,9.455,0,0,0-7.734-8.774l-3.007,4.085L286.1,267.029l-5.37-3.593,23.619-1.626h-.132l-22.2,1.1a9.455,9.455,0,0,0-8.907,9.833l3.063,62.063A9.455,9.455,0,0,0,286,343.71l22.182-1.1a9.455,9.455,0,0,0,8.907-9.833Z" transform="translate(-171.878 -140.027)" fill="#92e3a9" stroke="#263238" stroke-linecap="round" stroke-linejoin="round" stroke-width="1"/>
      <path id="Path_213" data-name="Path 213" d="M312.595,339.624a15.128,15.128,0,0,1-13.1-13.1c-1.721-11.97,3.99-25.642,3.99-25.642a78.962,78.962,0,0,0-11.97-5.673c-6.278-2.288-1.721-14.258.567-10.836s18.229,5.673,22.787,8.547,5.673,19.383,5.673,19.383l.4,25.226" transform="translate(-158.306 -120.472)" fill="#fff" stroke="#263238" stroke-linecap="round" stroke-linejoin="round" stroke-width="1"/>
      <path id="Path_214" data-name="Path 214" d="M418,507.406l57.184-149.844A24.716,24.716,0,0,0,461.78,326h0a24.735,24.735,0,0,0-32.336,12.859l-73.5,168.546Z" transform="translate(-98.062 -84.592)" fill="#263238" stroke="#263238" stroke-linecap="round" stroke-linejoin="round" stroke-width="1"/>
      <path id="Path_215" data-name="Path 215" d="M339.9,449.153c-2.231,1.683-47.484,55.747-57.79,68.077H414.273c7.961-11.062,39.919-56.371,53.648-88.254,15.771-36.553,17.019-80.047,13.88-93.284S475.486,313,475.486,313s-61.212,10.722-93.36,27.741c0,0-39.087,30.256-46.651,49.79S342.415,447.262,339.9,449.153Z" transform="translate(-163.846 -94.416)" fill="#92e3a9" stroke="#263238" stroke-linecap="round" stroke-linejoin="round" stroke-width="1"/>
      <path id="Path_216" data-name="Path 216" d="M503.885,412.728q2.184-5.673,4.066-11.346c5.843-17.851,13.237-39.371,9.323-58.281-3.782-18.286-27.1-16.4-40.335-6.316s-22.692,34.038-28.365,54.84-29.746,68.3-29.746,68.3-86.363-18.286-96.442-22.068-23.959-10.079-33.414-18.91-34.662-22.068-43.493-32.147-10.079-6.94-9.455-3.158,5.049,8.207,8.188,11.989a124.934,124.934,0,0,0,9.455,9.455s-14.485-3.158-21.425-5.673-10.079-6.316-11.97-3.158,0,6.94,6.3,10.079,30.88,10.1,30.88,10.1H232.24c-5.049,0-11.97,3.139-8.831,6.3S242.319,424,246.744,424h13.237s-17.662,6.3-22.692,6.921-4.425,5.673-.643,6.316,30.9-5.049,30.9-5.049,11.346,8.831,16.376,10.079a74.667,74.667,0,0,0,13.88,1.267s45.384,30.256,79.423,42.226c23.392,8.245,67.037,31.032,85.606,4.746C476.011,471.823,495.716,433.908,503.885,412.728Z" transform="translate(-219.57 -79.945)" fill="#fff" stroke="#263238" stroke-linecap="round" stroke-linejoin="round" stroke-width="1"/>
      <path id="Path_217" data-name="Path 217" d="M380.247,230.583s-13.5,17.549-14.863,27,.681,14.844-4.047,17.549-18.91,2.685-20.915,9.455,7.413,18.91,7.413,18.91,1.362,30.37,4.066,37.1,26.985,8.112,26.985,8.112l-4.047,28.952,39.825-12.14,10.8-39.144s15.525-6.751,20.915-28.365-4.047-43.872-27.666-58.035S380.247,230.583,380.247,230.583Z" transform="translate(-112.138 -168.538)" fill="#fff" stroke="#263238" stroke-linecap="round" stroke-linejoin="round" stroke-width="1"/>
      <path id="Path_218" data-name="Path 218" d="M361.272,292.68l20.253,2.1-21.614,11.4Z" transform="translate(-94.524 -112.521)" fill="#263238" stroke="#263238" stroke-linecap="round" stroke-linejoin="round" stroke-width="1"/>
      <path id="Path_219" data-name="Path 219" d="M349.57,274.091s12.821,2.023,19.572-6.751" transform="translate(-103.737 -135.1)" fill="none" stroke="#263238" stroke-linecap="round" stroke-linejoin="round" stroke-width="1"/>
      <path id="Path_220" data-name="Path 220" d="M361.66,255.485c-1,2.5-2.988,4.066-4.444,3.479s-1.891-3.082-.813-5.578,3.007-4.085,4.444-3.5S362.662,252.97,361.66,255.485Z" transform="translate(-98.184 -150.759)" fill="#263238"/>
      <path id="Path_221" data-name="Path 221" d="M358.06,243.546s7.451-4.633,12.348,4.633" transform="translate(-96.173 -157.333)" fill="none" stroke="#263238" stroke-linecap="round" stroke-linejoin="round" stroke-width="1"/>
      <path id="Path_222" data-name="Path 222" d="M351.931,272.977s-.246,10.533,3.612,10.287,8.491-14.164,8.491-14.164S361.2,272.447,351.931,272.977Z" transform="translate(-101.636 -133.532)" fill="#263238" stroke="#263238" stroke-linecap="round" stroke-linejoin="round" stroke-width="1"/>
      <path id="Path_223" data-name="Path 223" d="M428.469,299s-50.415,18.91-65.543,23.959-30.256,35.929-30.256,35.929,75-25.226,88.878-29.008l10.7-1.248S435.409,302.782,428.469,299Z" transform="translate(-118.796 -106.89)" fill="#fff" stroke="#263238" stroke-linecap="round" stroke-linejoin="round" stroke-width="1"/>
      <path id="Path_224" data-name="Path 224" d="M438.531,229.047s-1.778.889,4.463-12.462-24.073-25.85-58.811-15.128-30.256,39.22-25.85,52.589,30.256,10.684,29.405,19.591-6.24,17.832,3.574,25.85,1.778,6.24,4.444,10.7,11.592,1.778,14.258,3.555,9.8,8.018,1.778,20.5-16.925,10.684-15.128,24.943,5.352,27.628,24.073,32.979,34.738,6.24,37.423-8.907-7.129-18.721,3.555-24.961,40.108-8.907,43.664-38.312-3.574-56.182-24-73.107A78.742,78.742,0,0,0,438.531,229.047Z" transform="translate(-98.582 -197.409)" fill="#263238" stroke="#263238" stroke-linecap="round" stroke-linejoin="round" stroke-width="1"/>
      <path id="Path_225" data-name="Path 225" d="M390.65,296.509c4.557,8.112,13.767,11.63,18.91,9.739,7.564-2.874,8.585-17.189-.964-19.1s-12.405,3.782-7.564,8.585" transform="translate(-67.134 -117.787)" fill="none" stroke="#9c9c9c" stroke-linecap="round" stroke-linejoin="round" stroke-width="1"/>
      <path id="Path_226" data-name="Path 226" d="M371.45,225.54c4.784,7.564,16.4,12.537,36.988,18.778,31.5,9.55,39.144,34.379,31.5,46.784s-30.559,24.829-34.379,43.909a26.039,26.039,0,0,0-.284,8.907" transform="translate(-84.242 -172.344)" fill="none" stroke="#9c9c9c" stroke-linecap="round" stroke-linejoin="round" stroke-width="1"/>
      <path id="Path_227" data-name="Path 227" d="M395.361,222.193s11.46-.964,5.673-10.514-27.685-1.891-30.54,15.279a25.488,25.488,0,0,0-.246,8.056" transform="translate(-85.499 -188.399)" fill="none" stroke="#9c9c9c" stroke-linecap="round" stroke-linejoin="round" stroke-width="1"/>
      <path id="Path_228" data-name="Path 228" d="M416.84,233.53c9.852,5.2,21.9,15.374,23.3,34.227,1.891,25.775-9.55,34.36-28.63,45.819s-10.514,21.066-10.514,21.066" transform="translate(-59.627 -165.225)" fill="none" stroke="#9c9c9c" stroke-linecap="round" stroke-linejoin="round" stroke-width="1"/>
      <path id="Path_229" data-name="Path 229" d="M401.61,230.93a47.273,47.273,0,0,1,7.564,2.421" transform="translate(-57.369 -167.542)" fill="none" stroke="#9c9c9c" stroke-linecap="round" stroke-linejoin="round" stroke-width="1"/>
    </g>
    <g id="freepik--shopping-cart--inject-21" transform="translate(422.273 152.947)">
      <path id="Path_230" data-name="Path 230" d="M298.194,114.31a91.771,91.771,0,0,0-61,60.021" transform="translate(-228.264 -110.49)" fill="none" stroke="#263238" stroke-miterlimit="10" stroke-width="1"/>
      <path id="Path_231" data-name="Path 231" d="M308.583,114.313a91.484,91.484,0,0,0-19.175-2.023,93.215,93.215,0,0,0-12.878.908" transform="translate(-193.212 -112.29)" fill="none" stroke="#263238" stroke-miterlimit="10" stroke-width="1"/>
      <path id="Path_232" data-name="Path 232" d="M356.568,228.63a91.677,91.677,0,0,0-57.3-113.65" transform="translate(-172.95 -109.893)" fill="none" stroke="#263238" stroke-miterlimit="10" stroke-width="1"/>
      <path id="Path_233" data-name="Path 233" d="M325.1,191.516a90.561,90.561,0,0,0,6.486-13.426" transform="translate(-149.935 -53.661)" fill="none" stroke="#263238" stroke-miterlimit="10" stroke-width="1"/>
      <path id="Path_234" data-name="Path 234" d="M263.08,212.539A91.62,91.62,0,0,0,364.306,195.86" transform="translate(-205.196 -37.828)" fill="none" stroke="#263238" stroke-miterlimit="10" stroke-width="1"/>
      <path id="Path_235" data-name="Path 235" d="M255.41,200.24a96.424,96.424,0,0,0,8.4,5.295" transform="translate(-212.03 -33.925)" fill="none" stroke="#263238" stroke-miterlimit="10" stroke-width="1"/>
      <path id="Path_236" data-name="Path 236" d="M236.1,153a91.544,91.544,0,0,0,31.107,84.32" transform="translate(-230.275 -76.017)" fill="none" stroke="#263238" stroke-miterlimit="10" stroke-width="1"/>
      <circle id="Ellipse_1" data-name="Ellipse 1" cx="82.827" cy="82.827" r="82.827" transform="translate(13.369 8.718)" fill="#fff" stroke="#263238" stroke-miterlimit="10" stroke-width="1"/>
      <path id="Path_237" data-name="Path 237" d="M376.009,247.133H283.841a5.276,5.276,0,0,1-5.219-4.52L262.246,135.884h-20.5a5.257,5.257,0,1,1,0-10.514H266.8a5.257,5.257,0,0,1,5.2,4.52l16.4,106.729h87.611a5.257,5.257,0,1,1,0,10.514Z" transform="translate(-228.888 -100.635)" fill="#fff" stroke="#263238" stroke-linecap="round" stroke-linejoin="round" stroke-width="1"/>
      <rect id="Rectangle_111" data-name="Rectangle 111" width="21.236" height="13.388" rx="3.34" transform="translate(0 23.392)" fill="#263238" stroke="#263238" stroke-linecap="round" stroke-linejoin="round" stroke-width="1"/>
      <path id="Path_238" data-name="Path 238" d="M257.921,181.567H268.19l-1.172-7.507H256.73Z" transform="translate(-210.854 -57.252)" fill="#263238" stroke="#263238" stroke-linecap="round" stroke-linejoin="round" stroke-width="1"/>
      <path id="Path_239" data-name="Path 239" d="M360.818,207.886H260.329L251.46,138.75H369.687Z" transform="translate(-215.55 -88.714)" fill="#92e3a9" stroke="#263238" stroke-linecap="round" stroke-linejoin="round" stroke-width="1"/>
      <path id="Path_240" data-name="Path 240" d="M271.78,192.5h0a5.03,5.03,0,0,1-5.03-5.03V152.619a5.049,5.049,0,0,1,5.03-5.049h0a5.049,5.049,0,0,1,5.03,5.049v34.852a5.03,5.03,0,0,1-5.03,5.03Z" transform="translate(-201.926 -80.855)" fill="#fff" stroke="#263238" stroke-linecap="round" stroke-linejoin="round" stroke-width="1"/>
      <path id="Path_241" data-name="Path 241" d="M281.2,192.5h0a5.03,5.03,0,0,1-5.03-5.03V152.619a5.049,5.049,0,0,1,5.03-5.049h0a5.049,5.049,0,0,1,5.03,5.049v34.852a5.03,5.03,0,0,1-5.03,5.03Z" transform="translate(-193.532 -80.855)" fill="#fff" stroke="#263238" stroke-linecap="round" stroke-linejoin="round" stroke-width="1"/>
      <path id="Path_242" data-name="Path 242" d="M290.62,192.5h0a5.03,5.03,0,0,1-5.03-5.03V152.619a5.049,5.049,0,0,1,5.03-5.049h0a5.049,5.049,0,0,1,5.03,5.049v34.852a5.03,5.03,0,0,1-5.03,5.03Z" transform="translate(-185.139 -80.855)" fill="#fff" stroke="#263238" stroke-linecap="round" stroke-linejoin="round" stroke-width="1"/>
      <path id="Path_243" data-name="Path 243" d="M300.04,192.5h0a5.03,5.03,0,0,1-5.03-5.03V152.619a5.049,5.049,0,0,1,5.03-5.049h0a5.049,5.049,0,0,1,5.03,5.049v34.852a5.03,5.03,0,0,1-5.03,5.03Z" transform="translate(-176.746 -80.855)" fill="#fff" stroke="#263238" stroke-linecap="round" stroke-linejoin="round" stroke-width="1"/>
      <circle id="Ellipse_2" data-name="Ellipse 2" cx="12.386" cy="12.386" r="12.386" transform="translate(64.276 133.619)" fill="#263238" stroke="#263238" stroke-linecap="round" stroke-linejoin="round" stroke-width="1"/>
      <circle id="Ellipse_3" data-name="Ellipse 3" cx="5.314" cy="5.314" r="5.314" transform="translate(71.348 140.692)" fill="#fff" stroke="#263238" stroke-linecap="round" stroke-linejoin="round" stroke-width="1"/>
      <circle id="Ellipse_4" data-name="Ellipse 4" cx="12.386" cy="12.386" r="12.386" transform="translate(106.2 133.619)" fill="#263238" stroke="#263238" stroke-linecap="round" stroke-linejoin="round" stroke-width="1"/>
      <path id="Path_244" data-name="Path 244" d="M303.008,192a5.295,5.295,0,1,0-1.551,3.763A5.314,5.314,0,0,0,303.008,192Z" transform="translate(-179.089 -45.998)" fill="#fff" stroke="#263238" stroke-linecap="round" stroke-linejoin="round" stroke-width="1"/>
      <line id="Line_9" data-name="Line 9" x2="10.93" transform="translate(140.862 61.307)" fill="none" stroke="#263238" stroke-linecap="round" stroke-linejoin="round" stroke-width="1"/>
      <line id="Line_10" data-name="Line 10" x2="7.753" transform="translate(127.171 61.307)" fill="none" stroke="#263238" stroke-linecap="round" stroke-linejoin="round" stroke-width="1"/>
      <line id="Line_11" data-name="Line 11" x2="82.524" transform="translate(38.709 61.307)" fill="none" stroke="#263238" stroke-linecap="round" stroke-linejoin="round" stroke-width="1"/>
      <line id="Line_12" data-name="Line 12" y2="97.369" transform="translate(96.196 174.371)" fill="#fff" stroke="#263238" stroke-miterlimit="10" stroke-width="1"/>
      <circle id="Ellipse_5" data-name="Ellipse 5" cx="5.276" cy="5.276" r="5.276" transform="translate(90.92 266.464)" fill="#263238" stroke="#263238" stroke-linecap="round" stroke-linejoin="round" stroke-width="1"/>
      <circle id="Ellipse_6" data-name="Ellipse 6" cx="23.638" cy="23.638" r="23.638" transform="translate(131.804 32.979)" fill="#92e3a9"/>
      <path id="Path_245" data-name="Path 245" d="M327.144,181.179A26.474,26.474,0,1,1,353.619,154.7,26.474,26.474,0,0,1,327.144,181.179Zm0-47.276a20.8,20.8,0,1,0,20.8,20.8,20.8,20.8,0,0,0-20.8-20.8Z" transform="translate(-171.702 -98.087)" fill="#263238"/>
      <path id="Path_246" data-name="Path 246" d="M321.161,162.437h-.208a2.8,2.8,0,0,1-2.231-1.362l-9.115-15.261a2.837,2.837,0,1,1,4.86-2.912l7.035,11.743,19.534-24.356a2.838,2.838,0,1,1,4.425,3.555l-22.087,27.533a2.893,2.893,0,0,1-2.212,1.059Z" transform="translate(-164.168 -97.197)" fill="#fff"/>
    </g>
    <g id="freepik--Box--inject-21" transform="translate(141.513 316.917)">
      <path id="Path_247" data-name="Path 247" d="M165,282.661s14.485-4.141,16.849-5.333,13.88-13.6,13.88-15.355-4.141-.889-7.375.87-13.237,12.708-13.237,12.708Z" transform="translate(-11.827 -143.747)" fill="#fff" stroke="#263238" stroke-linecap="round" stroke-linejoin="round" stroke-width="1"/>
      <path id="Path_248" data-name="Path 248" d="M161.7,286.244s19.213-8.566,21.293-10.041,10.628-10.344,11.233-13.237-5.919-2.061-7.7-1.172-12.405,11.516-13.6,12.708S159.7,285.734,159.7,285.734,155.743,287.719,161.7,286.244Z" transform="translate(-17.699 -143.794)" fill="#fff" stroke="#263238" stroke-linecap="round" stroke-linejoin="round" stroke-width="1"/>
      <path id="Path_249" data-name="Path 249" d="M129.391,290.989s18.91-19.667,22.484-21.785,45.668-2.1,45.668-2.1,20.366-5.673,23.884-6.335,2.818,6.335-2.1,9.153-19.686,16.149-25.3,19.667-41.451,8.434-41.451,8.434L135.007,319.09,116.74,307.857Z" transform="translate(-54.828 -144)" fill="#fff" stroke="#263238" stroke-linecap="round" stroke-linejoin="round" stroke-width="1"/>
      <path id="Path_250" data-name="Path 250" d="M172.506,264.195s8.982-1.04,8.094,1.607-4.141,8.283-10.344,8.585L144.84,275.56" transform="translate(-29.79 -141.09)" fill="#fff" stroke="#263238" stroke-linecap="round" stroke-linejoin="round" stroke-width="1"/>
      <path id="Path_251" data-name="Path 251" d="M145.912,285.835s-15.9-1.229-19.043.662S84,333.148,84,333.148l14.334,68.833c-.643,2.78,64.616-65.373,73.92-85.852,4.009-8.85-5.673-19.553-5.673-19.553Z" transform="translate(-84 -121.978)" fill="#92e3a9" stroke="#263238" stroke-linecap="round" stroke-linejoin="round" stroke-width="1"/>
      <path id="Path_252" data-name="Path 252" d="M124.953,276.11l31.58,21.974-13.388,16L112.85,293.488Z" transform="translate(-58.294 -130.294)" fill="#92e3a9" stroke="#263238" stroke-linecap="round" stroke-linejoin="round" stroke-width="1"/>
      <rect id="Rectangle_112" data-name="Rectangle 112" width="166.41" height="82.259" transform="translate(54.835 42.896) rotate(-2.83)" fill="#fff" stroke="#263238" stroke-linecap="round" stroke-linejoin="round" stroke-width="1"/>
      <rect id="Rectangle_113" data-name="Rectangle 113" width="32.431" height="16.565" transform="matrix(0.999, -0.049, 0.049, 0.999, 59.835, 47.368)" fill="#92e3a9" stroke="#263238" stroke-linecap="round" stroke-linejoin="round" stroke-width="1"/>
      <rect id="Rectangle_114" data-name="Rectangle 114" width="34.038" height="82.259" transform="translate(187.054 36.35) rotate(-2.83)" fill="#dbdbdb" stroke="#263238" stroke-linecap="round" stroke-linejoin="round" stroke-width="1"/>
      <path id="Path_253" data-name="Path 253" d="M200.87,217.36s13.237,9.171,18.494,18.589" transform="translate(20.133 -182.641)" fill="none" stroke="#263238" stroke-linecap="round" stroke-linejoin="round" stroke-width="1"/>
      <path id="Path_254" data-name="Path 254" d="M208.4,223.87l-.511,20.385,15.677,18.816,21.955-19.326L229.845,224.4Z" transform="translate(26.388 -176.84)" fill="#92e3a9" stroke="#263238" stroke-linecap="round" stroke-linejoin="round" stroke-width="1"/>
      <line id="Line_13" data-name="Line 13" y2="17.965" transform="translate(139.935 0)" fill="none" stroke="#263238" stroke-linecap="round" stroke-linejoin="round" stroke-width="1"/>
      <line id="Line_14" data-name="Line 14" y2="17.965" transform="translate(139.935 157.9)" fill="none" stroke="#263238" stroke-linecap="round" stroke-linejoin="round" stroke-width="1"/>
      <line id="Line_15" data-name="Line 15" x2="12.292" y2="9.455" transform="translate(33.093 27.42)" fill="none" stroke="#263238" stroke-linecap="round" stroke-linejoin="round" stroke-width="1"/>
      <line id="Line_16" data-name="Line 16" x1="19.856" y2="0.946" transform="translate(26.474 90.769)" fill="none" stroke="#263238" stroke-linecap="round" stroke-linejoin="round" stroke-width="1"/>
      <line id="Line_17" data-name="Line 17" x1="12.292" y2="12.292" transform="translate(46.33 138.044)" fill="none" stroke="#263238" stroke-linecap="round" stroke-linejoin="round" stroke-width="1"/>
      <line id="Line_18" data-name="Line 18" x2="15.128" y2="14.183" transform="translate(231.65 124.807)" fill="none" stroke="#263238" stroke-linecap="round" stroke-linejoin="round" stroke-width="1"/>
      <line id="Line_19" data-name="Line 19" y1="14.183" x2="12.292" transform="translate(227.868 12.292)" fill="none" stroke="#263238" stroke-linecap="round" stroke-linejoin="round" stroke-width="1"/>
    </g>
    <g id="freepik--Device--inject-21" transform="translate(24.61 371.927)">
      <rect id="Rectangle_115" data-name="Rectangle 115" width="188.232" height="15.185" transform="translate(205.195 349.612)" fill="#fff" stroke="#263238" stroke-linecap="round" stroke-miterlimit="10" stroke-width="1"/>
      <rect id="Rectangle_116" data-name="Rectangle 116" width="13.029" height="4.879" transform="translate(208.277 344.506)" fill="#fff" stroke="#263238" stroke-linecap="round" stroke-miterlimit="10" stroke-width="1"/>
      <rect id="Rectangle_117" data-name="Rectangle 117" width="13.029" height="4.879" transform="translate(225.088 344.506)" fill="#fff" stroke="#263238" stroke-linecap="round" stroke-miterlimit="10" stroke-width="1"/>
      <rect id="Rectangle_118" data-name="Rectangle 118" width="13.029" height="4.879" transform="translate(241.918 344.506)" fill="#fff" stroke="#263238" stroke-linecap="round" stroke-miterlimit="10" stroke-width="1"/>
      <rect id="Rectangle_119" data-name="Rectangle 119" width="13.029" height="4.879" transform="translate(258.729 344.506)" fill="#fff" stroke="#263238" stroke-linecap="round" stroke-miterlimit="10" stroke-width="1"/>
      <rect id="Rectangle_120" data-name="Rectangle 120" width="13.029" height="4.879" transform="translate(275.559 344.506)" fill="#fff" stroke="#263238" stroke-linecap="round" stroke-miterlimit="10" stroke-width="1"/>
      <rect id="Rectangle_121" data-name="Rectangle 121" width="13.029" height="4.879" transform="translate(292.37 344.506)" fill="#fff" stroke="#263238" stroke-linecap="round" stroke-miterlimit="10" stroke-width="1"/>
      <rect id="Rectangle_122" data-name="Rectangle 122" width="13.029" height="4.879" transform="translate(309.201 344.506)" fill="#fff" stroke="#263238" stroke-linecap="round" stroke-miterlimit="10" stroke-width="1"/>
      <rect id="Rectangle_123" data-name="Rectangle 123" width="13.029" height="4.879" transform="translate(326.012 344.506)" fill="#fff" stroke="#263238" stroke-linecap="round" stroke-miterlimit="10" stroke-width="1"/>
      <rect id="Rectangle_124" data-name="Rectangle 124" width="13.029" height="4.879" transform="translate(342.842 344.506)" fill="#fff" stroke="#263238" stroke-linecap="round" stroke-miterlimit="10" stroke-width="1"/>
      <rect id="Rectangle_125" data-name="Rectangle 125" width="13.029" height="4.879" transform="translate(359.653 344.506)" fill="#fff" stroke="#263238" stroke-linecap="round" stroke-miterlimit="10" stroke-width="1"/>
      <rect id="Rectangle_126" data-name="Rectangle 126" width="13.029" height="4.879" transform="translate(376.483 344.506)" fill="#fff" stroke="#263238" stroke-linecap="round" stroke-miterlimit="10" stroke-width="1"/>
      <path id="Path_255" data-name="Path 255" d="M155.69,521.783H73.563a17.019,17.019,0,0,1-16.679-20.12L93.57,307.89l8.945,1.7L65.829,503.346a7.848,7.848,0,0,0,7.734,9.323H155.69Z" transform="translate(8.488 -156.987)" fill="#263238"/>
      <path id="Path_256" data-name="Path 256" d="M84.182,302.46,71.02,306.507l10.117,53.629,16.206-3.026Z" transform="translate(21.337 -161.825)" fill="#263238"/>
      <path id="Path_257" data-name="Path 257" d="M122.816,536.988h0L61.66,228.09,66.35,231a44.515,44.515,0,0,1,20.177,29.065l47.162,238.268a44.458,44.458,0,0,1-10.873,38.653Z" transform="translate(12.997 -228.09)" fill="#fff" stroke="#263238" stroke-linecap="round" stroke-miterlimit="10" stroke-width="1"/>
      <line id="Line_20" data-name="Line 20" x2="25.226" transform="translate(810.264 364.797)" fill="none" stroke="#263238" stroke-linecap="round" stroke-miterlimit="10" stroke-width="1"/>
      <line id="Line_21" data-name="Line 21" x2="790.843" transform="translate(0 364.797)" fill="none" stroke="#263238" stroke-linecap="round" stroke-miterlimit="10" stroke-width="1"/>
    </g>
  </g>
</svg>
